<svg id="Слой_1" data-name="Слой 1" xmlns="http://www.w3.org/2000/svg" 
viewBox="0 0 500 500"><defs><style>.cls-1{fill:#fff;}.cls-2{fill:#b69f71;}
</style></defs><path class="cls-1" d="M160,425.46l-5.5-17.35H128.87l-5.6,17.35H108l25.27-72.8h17.91l25.28,72.8ZM141.29,367.8l-9.14,28.55h19.07l-9-28.55Z"/><path class="cls-1" d="M188.17,405.23H202.9a9.37,9.37,0,0,0,4.64,7.07,19.48,19.48,0,0,0,10.6,2.62,16.85,16.85,0,0,0,9.73-2.6,7.85,7.85,0,0,0,3.79-6.73,6.74,6.74,0,0,0-2.93-5.66q-2.92-2.16-9.64-3.58l-9.48-2q-19.79-4.12-19.78-20.78A20.3,20.3,0,0,1,197.45,357q7.62-6.22,20.23-6.23,12,0,19.75,6.11a20.21,20.21,0,0,1,8.1,15.84H231.2a9.78,9.78,0,0,0-4.23-7,15.45,15.45,0,0,0-9.19-2.63q-5.75,0-9.21,2.48a7.74,7.74,0,0,0-3.45,6.61,6.46,6.46,0,0,0,2.8,5.45q2.81,2.06,9.21,3.43l8.78,1.86q11,2.32,15.94,7.27t5,13.42q0,11-7.89,17.33t-21.62,6.33q-13,0-20.89-5.95A20.25,20.25,0,0,1,188.17,405.23Z"/><path class="cls-1" d="M296.7,425.46H281.47V365.68H259.62v-13h58.93v13H296.7Z"/><path class="cls-1" d="M373.55,425.46l-5.5-17.35H342.47l-5.6,17.35H321.59l25.27-72.8h17.91l25.28,72.8ZM354.89,367.8l-9.14,28.55h19.07l-9-28.55Z"/><path class="cls-1" d="M419.63,425.46H405v-72.8h12.72L451.26,398h.91V352.66h14.58v72.8H454.14L420.53,379.9h-.9Z"/><path class="cls-1" d="M89.6,362.51A36.48,36.48,0,0,0,63,351.41H34.16v75.27H63a36.73,36.73,0,0,0,26.6-10.95,37.42,37.42,0,0,0,0-53.22ZM63,413.71H47.28V364.37H63a24.67,24.67,0,0,1,0,49.34Z"/><path class="cls-2" d="M67.9,484.37l-2.84-8.09H53.82L51,484.37h-3.7l10.41-28.26h3.49L71.6,484.37Zm-8.52-24-4.53,12.89H64L59.5,460.4Z"/><path class="cls-2" d="M198.15,472.68q0,5.73-3.16,8.95t-8.83,3.21a11.93,11.93,0,0,1-9.43-4q-3.51-4-3.51-10.75t3.5-10.53a12.06,12.06,0,0,1,9.44-3.92,12.29,12.29,0,0,1,7.81,2.52,10.7,10.7,0,0,1,4,6.73h-3.7a8.81,8.81,0,0,0-15-3q-2.48,3-2.48,8.21c0,3.56.84,6.36,2.51,8.43a8.3,8.3,0,0,0,6.81,3.09,8.52,8.52,0,0,0,6.11-2.22,7.57,7.57,0,0,0,2.35-5.77v-.51h-8V470h11.5Z"/>
<path class="cls-2" d="M306.45,473.19v11.18h-3.53V456.11h10.59a9.24,9.24,0,0,1,6.56,2.3,8,8,0,0,1,2.45,6.12,8.7,8.7,0,0,1-1.5,5.11,7.81,7.81,0,0,1-4.17,3l6.53,11.73h-4.13l-6.05-11.18Zm0-13.94v10.82h6.75a5.83,5.83,0,0,0,4.2-1.41,5.25,5.25,0,0,0,1.48-4,5.13,5.13,0,0,0-1.55-4,6.09,6.09,0,0,0-4.29-1.42Z"/><path class="cls-2" d="M429.63,459.58a13.46,13.46,0,0,1,19,0q3.51,3.93,3.51,10.67t-3.51,10.66a13.48,13.48,0,0,1-19,0q-3.51-3.92-3.51-10.66T429.63,459.58ZM446,462a9.21,9.21,0,0,0-13.73,0,14.77,14.77,0,0,0,0,16.56,9.21,9.21,0,0,0,13.73,0A14.77,14.77,0,0,0,446,462Z"/><path class="cls-1" d="M108,249v11.75a327.56,327.56,0,0,1,56.13,46H178.3A326.36,326.36,0,0,0,108,249Z"/><path class="cls-1" d="M108,198.86v13.77a327.13,327.13,0,0,1,118.08,94.06h18.25A402.76,402.76,0,0,0,108,198.86Z"/><path class="cls-1" d="M108,183.28A666.76,666.76,0,0,1,296.7,297a142.18,142.18,0,0,0,14.08-6.31C250.75,239,182.52,199.25,108,170.93Z"/><path class="cls-1" d="M344.91,206.17q-13.85-5.86-27.91-11.08A181.52,181.52,0,0,1,390.05,158c-.06-3.29-.23-6.54-.52-9.77a186.16,186.16,0,0,0-90.6,40.53q-24.09-8.1-48.82-14.25A258,258,0,0,1,360,136.39s25.62-2.4,27.7-1.87A145.86,145.86,0,0,0,244.25,15H108V170.33a728.89,728.89,0,0,1,238.43,94.56,141,141,0,0,0,9.74-10.56c-73-45.83-152.8-76.23-241.23-93a733.29,733.29,0,0,1,256.52,70.86q3.09-5.47,5.72-11.23-8.28-4.06-16.65-7.89a48.39,48.39,0,0,1,26.37-21.74,147.75,147.75,0,0,0,2.44-15.6A76.62,76.62,0,0,0,344.91,206.17Z"/></svg>